<svg width="98" height="98" viewBox="0 0 98 98" fill="none" xmlns="http://www.w3.org/2000/svg">
<path d="M53.5 5V2.5H51H25C12.5736 2.5 2.5 12.5736 2.5 25V73C2.5 85.4264 12.5736 95.5 25 95.5H51H53.5V93V5Z" stroke="#FF7B9C" stroke-width="5"/>
<path d="M52 2.5H49.5V5V93V95.5H52H93H95.5V93V25C95.5 12.5736 85.4264 2.5 73 2.5H52Z" fill="#FF7B9C" stroke="#FF7B9C" stroke-width="5"/>
<path d="M59.2264 77.1778V69.8574H43V57.1425H59.2264V49.8222C59.2264 46.4238 64.0037 44.7219 66.7977 47.1249L82.7009 60.8028C84.433 62.2923 84.433 64.7075 82.7009 66.1972L66.7977 79.8751C64.0036 82.2781 59.2264 80.5762 59.2264 77.1778Z" fill="white"/>
<path d="M35.1482 20.8222V28.1426H49V40.8575H35.1482V48.1778C35.1482 51.5762 31.07 53.2781 28.6849 50.8751L15.109 37.1972C13.6303 35.7077 13.6303 33.2925 15.109 31.8028L28.6849 18.1249C31.0701 15.7219 35.1482 17.4238 35.1482 20.8222Z" fill="#FF7B9C"/>
</svg>
