<svg width="80" height="80" viewBox="0 0 80 80" fill="none" xmlns="http://www.w3.org/2000/svg">
<path d="M50.5 5V2.5H48H25C12.5736 2.5 2.5 12.5736 2.5 25V55C2.5 67.4264 12.5736 77.5 25 77.5H32H34.5V75V42.5H48H50.5V40V5Z" fill="#FF7B9C" stroke="#FF7B9C" stroke-width="5"/>
<path d="M48 2.5H45.5V5V37.5H32H29.5V40V75V77.5H32H74C75.933 77.5 77.5 75.933 77.5 74V25C77.5 12.5736 67.4264 2.5 55 2.5H48Z" fill="#FEFEFC" stroke="#FF7B9C" stroke-width="5"/>
<path d="M48.2264 60.1353V52.9575L32 52.9575V39.9575H48V32.9575C48 29.5591 53.0037 27.6794 55.7977 30.0824L71.7009 43.7603C73.433 45.2498 73.433 47.665 71.7009 49.1547L55.7977 62.8327C53.0036 65.2356 48.2264 63.5337 48.2264 60.1353Z" fill="#FF7B9C"/>
<path d="M32 19.9575V26.9576H48V39.9576L32 39.9575V46.9575C32 50.3559 28.07 52.2357 25.6849 49.8327C25.6849 49.8327 13.5876 37.6444 12.109 36.1548C10.6303 34.6653 10.6303 32.2501 12.109 30.7604L25.6849 17.0825C28.0701 14.6795 32 16.5592 32 19.9575Z" fill="#FEFEFC"/>
</svg>
